<svg xmlns="http://www.w3.org/2000/svg" viewBox="0 0 122.88 109.03"><path d="M101.69 72.04c-4.63 1.68-11.49-2.09-22-14.74-3.98 1.47-7.1 4.73-8.46 11.72-2.58 13.31 1.52 21.83 7.22 33.54 1.06 2.17 2.12 4.32 3.15 6.48H.31l.25-.2c-5.55-39.24 31.98-58.51 4.56-46.4C16.9 33.92 53.21 24.64 27.59 27.6c13.18-12.05 29.8-18.71 53.43-14.5 5.02-7.33 17.03-22.96 13.35-4.24l6.02-5.37.33 18.89c7.16 5.46 11.07 23.65 16.61 35.48 4.74 4.7 6.56 10.32 5.05 19.06-7.38 9.51-19.03 7.15-20.69-4.88z" clip-rule="evenodd" fill-rule="evenodd" fill="#4169e1"/></svg>